<?xml version="1.0" encoding="UTF-8" standalone="no"?>
<!DOCTYPE svg PUBLIC "-//W3C//DTD SVG 1.1//EN" "http://www.w3.org/Graphics/SVG/1.1/DTD/svg11.dtd">
<svg xmlns="http://www.w3.org/2000/svg" version="1.1" viewBox="0 0 1500 600" width="1500.0pt" height="600.0pt">
<path d="M 0.00 0.00 L 1500.00 0.00 L 1500.00 600.00 L 0.00 600.00 L 0.00 0.00 Z" fill="#ffffff" />
<path d="M 811.41 215.60 C 814.50 218.63 818.47 221.61 820.33 225.55 C 821.84 228.76 822.56 232.49 822.04 236.02 C 821.02 244.48 813.51 251.83 805.00 252.54 C 799.09 253.28 793.21 251.23 789.10 246.92 C 773.17 230.39 750.92 220.31 727.99 219.25 C 695.54 217.52 662.29 234.38 645.02 262.02 C 643.68 264.28 642.21 266.27 642.72 269.05 C 643.31 271.61 645.27 272.65 647.46 273.68 C 656.66 277.81 666.04 281.61 675.19 285.83 C 679.89 287.77 679.71 295.24 674.79 296.77 C 649.60 306.22 624.19 315.31 598.97 324.70 C 596.78 325.44 594.50 326.05 592.48 324.53 C 590.24 323.15 589.72 320.51 588.78 318.24 C 580.19 294.85 571.45 271.37 563.05 247.93 C 561.03 243.17 566.17 238.09 570.87 240.13 C 578.06 243.16 585.12 246.56 592.26 249.71 C 596.00 251.29 599.93 253.70 603.97 254.22 C 606.90 253.47 608.62 251.57 609.97 248.98 C 620.40 229.91 635.74 213.74 654.05 202.06 C 668.75 192.98 685.08 186.40 702.16 183.59 C 741.02 176.64 782.47 188.76 811.41 215.60 Z" fill="#5bb130" />
<path d="M 1125.11 183.36 C 1128.66 184.48 1130.43 187.36 1133.16 189.84 C 1187.89 243.70 1242.68 297.52 1297.30 351.49 C 1297.12 298.25 1296.89 245.00 1296.69 191.75 C 1309.28 191.75 1321.88 191.75 1334.47 191.75 C 1334.48 269.50 1334.47 347.25 1334.47 425.00 C 1334.47 429.36 1334.56 433.70 1334.32 438.05 C 1323.34 427.94 1312.86 417.25 1302.07 406.92 C 1255.60 361.83 1209.04 316.80 1162.50 271.77 C 1162.83 324.18 1163.13 376.59 1163.46 429.00 C 1150.65 429.00 1137.84 429.00 1125.04 429.00 C 1125.09 347.14 1124.95 265.20 1125.11 183.36 Z" fill="#000000" />
<path d="M 165.21 191.75 C 186.80 191.75 208.41 191.75 230.00 191.75 C 243.82 191.77 258.53 193.37 271.51 198.31 C 280.90 201.52 289.25 206.85 296.86 213.14 C 307.81 222.66 315.06 235.79 317.81 250.00 C 321.14 266.96 319.65 285.22 313.36 301.34 C 309.14 312.26 302.55 322.05 293.32 329.33 C 289.60 332.65 285.36 334.86 281.17 337.50 C 300.39 367.99 319.61 398.50 338.83 428.99 C 324.18 429.01 309.52 428.99 294.87 429.01 C 277.01 401.52 259.21 374.00 241.40 346.49 C 228.70 346.51 216.01 346.50 203.32 346.50 C 203.30 374.00 203.31 401.50 203.31 429.00 C 190.61 429.00 177.90 429.00 165.20 429.00 C 165.21 349.92 165.20 270.83 165.21 191.75 Z" fill="#000000" />
<path d="M 383.48 191.75 C 435.93 191.75 488.37 191.74 540.81 191.75 C 540.81 203.92 540.81 216.08 540.81 228.25 C 501.06 228.25 461.32 228.25 421.58 228.25 C 421.58 249.33 421.58 270.41 421.58 291.49 C 456.97 291.51 492.37 291.49 527.77 291.50 C 527.76 303.67 527.76 315.83 527.77 328.00 C 492.37 328.01 456.97 328.00 421.58 328.00 C 421.58 349.50 421.57 371.00 421.58 392.50 C 462.83 392.51 504.09 392.49 545.34 392.51 C 545.34 404.67 545.34 416.83 545.34 429.00 C 491.38 429.00 437.43 429.01 383.47 428.99 C 383.49 349.91 383.46 270.83 383.48 191.75 Z" fill="#000000" />
<path d="M 910.68 191.75 C 963.13 191.75 1015.57 191.75 1068.01 191.75 C 1068.02 203.92 1068.02 216.08 1068.01 228.25 C 1028.27 228.25 988.53 228.25 948.79 228.25 C 948.79 249.33 948.79 270.41 948.79 291.50 C 984.18 291.50 1019.57 291.50 1054.97 291.50 C 1054.98 303.66 1054.97 315.83 1054.97 328.00 C 1019.58 328.00 984.18 328.00 948.79 328.00 C 948.78 349.49 948.80 370.99 948.78 392.48 C 990.03 392.53 1031.29 392.49 1072.54 392.50 C 1072.56 404.66 1072.54 416.83 1072.55 428.99 C 1018.60 429.01 964.64 429.00 910.68 429.00 C 910.68 349.92 910.68 270.83 910.68 191.75 Z" fill="#000000" />
<path d="M 203.39 228.34 C 213.91 228.10 224.47 228.33 235.00 228.24 C 244.01 228.24 252.60 228.72 260.54 233.45 C 276.45 242.13 283.20 261.86 279.36 279.03 C 277.63 286.61 273.70 293.74 268.43 299.43 C 260.87 307.13 250.43 309.52 240.00 310.01 C 227.76 310.00 215.54 310.00 203.30 310.00 C 203.38 282.84 203.19 255.47 203.39 228.34 Z" fill="#ffffff" />
<path d="M 853.89 293.12 C 855.15 295.02 855.83 297.36 856.68 299.47 C 865.23 322.56 873.72 345.69 882.08 368.85 C 884.00 373.06 880.37 377.56 875.94 377.28 C 872.71 376.42 869.66 374.72 866.62 373.37 C 857.44 369.22 848.29 364.95 839.03 361.02 C 831.43 376.67 820.77 391.21 807.56 402.58 C 789.03 419.03 765.48 429.86 741.00 433.56 C 702.53 439.93 661.03 427.18 632.94 400.06 C 629.13 396.26 625.14 392.59 624.11 387.03 C 622.45 380.19 625.16 372.98 630.53 368.56 C 636.33 363.39 645.87 362.64 652.54 366.45 C 656.07 368.41 657.94 371.48 660.81 374.18 C 674.11 386.30 691.02 394.11 708.80 396.74 C 743.22 401.90 779.55 385.85 798.92 356.94 C 800.53 354.41 803.09 351.15 802.78 348.02 C 802.49 345.40 800.16 344.03 798.01 342.99 C 788.77 338.88 779.39 335.01 770.23 330.73 C 767.05 329.39 765.72 325.38 767.41 322.39 C 768.41 320.15 771.39 319.46 773.48 318.57 C 797.94 309.69 822.41 300.65 846.84 291.67 C 849.13 290.81 852.27 291.11 853.89 293.12 Z" fill="#5bb130" />
</svg>